<?xml version="1.0" standalone="no"?>
<!DOCTYPE svg PUBLIC "-//W3C//DTD SVG 20010904//EN"
 "http://www.w3.org/TR/2001/REC-SVG-20010904/DTD/svg10.dtd">
<svg version="1.0" xmlns="http://www.w3.org/2000/svg"
 width="128.000000pt" height="128.000000pt" viewBox="0 0 128.000000 128.000000"
 preserveAspectRatio="xMidYMid meet">
<metadata>
Created by potrace 1.11, written by Peter Selinger 2001-2013
</metadata>
<g transform="translate(0.000000,128.000000) scale(0.100000,-0.100000)"
fill="#000000" stroke="none">
<path d="M275 1209 c-57 -14 -112 -55 -143 -108 l-27 -46 0 -415 0 -415 28
-48 c30 -51 84 -93 133 -103 26 -5 35 -2 48 17 9 14 12 25 6 27 -6 2 -6 10 0
23 8 13 7 19 0 19 -6 0 -8 5 -5 10 3 6 44 10 89 10 78 0 84 -2 91 -22 4 -13 6
-30 6 -39 -1 -9 14 -27 34 -39 34 -21 45 -22 138 -17 56 4 111 8 122 11 11 2
25 5 30 5 6 1 4 5 -3 10 -15 9 0 26 33 34 16 4 14 5 -7 6 -20 1 -26 6 -25 21
1 15 11 21 42 25 57 8 86 3 81 -12 -3 -7 0 -13 7 -13 7 0 3 -7 -7 -15 -11 -8
-14 -15 -8 -15 10 0 10 -5 2 -20 -9 -17 -6 -20 25 -26 66 -12 139 29 182 104
l28 47 3 392 c2 252 -1 407 -8 432 -15 55 -46 91 -78 90 l-27 -1 25 -8 c14 -4
18 -9 10 -9 -13 -1 -13 -2 0 -11 8 -5 12 -10 8 -10 -4 0 -28 16 -54 35 -25 19
-53 35 -62 35 -15 0 -15 2 -2 10 10 7 -7 9 -55 6 -38 -2 -55 -2 -37 1 17 2 32
7 32 11 0 4 21 6 48 5 l47 -2 -40 9 c-55 11 -660 10 -710 -1z m-25 -682 c0 -2
-10 -12 -22 -23 l-23 -19 19 23 c18 21 26 27 26 19z m161 -14 c13 -16 12 -17
-3 -4 -17 13 -22 21 -14 21 2 0 10 -8 17 -17z m479 14 c0 -2 -10 -12 -22 -23
l-23 -19 19 23 c18 21 26 27 26 19z m161 -14 c13 -16 12 -17 -3 -4 -10 7 -18
15 -18 17 0 8 8 3 21 -13z m-513 -43 c-14 -4 -32 -11 -40 -16 -10 -6 -10 -4 1
9 7 9 25 17 40 16 l26 -1 -27 -8z m235 3 c3 -5 -25 -7 -61 -5 -116 5 -130 9
-35 10 50 1 94 -1 96 -5z m-576 -45 c-3 -8 -6 -5 -6 6 -1 11 2 17 5 13 3 -3 4
-12 1 -19z m640 0 c-3 -8 -6 -5 -6 6 -1 11 2 17 5 13 3 -3 4 -12 1 -19z m-397
-22 c0 -25 -50 -75 -86 -85 -21 -6 -47 -6 -68 0 -38 11 -86 54 -86 78 0 11 4
8 13 -8 43 -85 178 -85 210 0 13 32 17 36 17 15z m640 0 c0 -25 -50 -75 -86
-85 -21 -6 -47 -6 -68 0 -38 11 -86 54 -86 78 0 11 4 8 13 -8 29 -57 112 -81
169 -49 l23 13 -22 3 c-13 2 -23 10 -23 18 0 20 38 17 43 -3 3 -14 8 -10 18
15 15 35 19 39 19 18z m-577 -19 c4 -11 16 -21 27 -24 11 -3 20 -13 20 -22 0
-9 5 -22 12 -29 9 -9 5 -12 -17 -12 -17 0 -35 4 -41 8 -18 11 -34 48 -34 76 0
30 21 31 33 3z m276 -73 c-8 -10 -36 -14 -107 -14 -52 0 -93 3 -89 6 3 3 41 6
84 6 43 0 83 4 90 10 6 5 15 24 20 41 l8 32 3 -33 c2 -18 -2 -40 -9 -48z"/>
<path d="M838 103 c7 -3 16 -2 19 1 4 3 -2 6 -13 5 -11 0 -14 -3 -6 -6z"/>
</g>
</svg>
