<?xml version="1.0" standalone="no"?>
<!DOCTYPE svg PUBLIC "-//W3C//DTD SVG 20010904//EN"
 "http://www.w3.org/TR/2001/REC-SVG-20010904/DTD/svg10.dtd">
<svg version="1.0" xmlns="http://www.w3.org/2000/svg"
 width="270.000000pt" height="270.000000pt" viewBox="0 0 270.000000 270.000000"
 preserveAspectRatio="xMidYMid meet">
<metadata>
Created by potrace 1.11, written by Peter Selinger 2001-2013
</metadata>
<g transform="translate(0.000000,270.000000) scale(0.100000,-0.100000)"
fill="#000000" stroke="none">
<path d="M982 2125 c-58 -18 -108 -58 -135 -108 -22 -41 -22 -50 -25 -429 -2
-258 1 -401 8 -428 15 -55 83 -124 138 -141 52 -15 64 -7 66 50 l1 41 95 0
c57 0 90 -4 81 -9 -8 -5 -9 -11 -3 -15 6 -3 8 -14 5 -25 -3 -13 6 -25 32 -41
35 -21 44 -23 149 -17 121 7 157 14 134 28 -9 6 -4 9 17 10 17 1 23 3 12 6 -9
2 -15 9 -12 14 4 5 1 9 -4 9 -6 0 -11 9 -11 20 0 18 7 20 63 20 56 0 63 -2 64
-20 1 -11 -1 -20 -5 -20 -4 0 -9 -11 -10 -25 -1 -19 4 -26 24 -31 69 -17 177
59 202 143 18 61 16 774 -2 826 -19 53 -44 77 -79 77 -17 0 -45 11 -63 25 -18
14 -44 25 -58 25 -14 0 -28 4 -31 10 -4 6 12 8 42 5 43 -4 44 -4 14 4 -59 15
-659 12 -709 -4z m825 -81 c-3 -3 -12 -4 -19 -1 -8 3 -5 6 6 6 11 1 17 -2 13
-5z m-544 -641 c-7 -2 -19 -2 -25 0 -7 3 -2 5 12 5 14 0 19 -2 13 -5z m180 0
c-23 -2 -64 -2 -90 0 -26 2 -7 3 42 3 50 0 71 -1 48 -3z m-526 -45 c-3 -8 -6
-5 -6 6 -1 11 2 17 5 13 3 -3 4 -12 1 -19z m630 0 c-3 -8 -6 -5 -6 6 -1 11 2
17 5 13 3 -3 4 -12 1 -19z m-563 -82 c33 -16 46 -18 80 -8 36 9 39 9 22 -4
-34 -24 -87 -17 -129 17 -20 17 -37 38 -37 47 0 12 4 9 13 -8 7 -14 30 -34 51
-44z m253 24 c12 0 33 -38 33 -61 0 -16 -40 -9 -60 11 -20 20 -27 70 -13 84 4
4 12 -2 17 -13 5 -12 15 -21 23 -21z m354 -14 c33 -22 79 -29 113 -16 27 10
28 12 11 24 -10 7 -15 18 -11 24 11 18 36 14 36 -5 1 -15 4 -14 20 6 24 28 27
15 4 -17 -21 -30 -66 -52 -106 -52 -38 0 -108 51 -107 78 0 13 2 12 9 -4 5
-12 19 -29 31 -38z m-465 6 c-17 -16 -18 -16 -5 5 7 12 15 20 18 17 3 -2 -3
-12 -13 -22z m368 -30 c-9 -14 -27 -17 -100 -18 -88 0 -88 0 -11 3 72 4 79 6
89 29 8 17 15 21 22 14 7 -7 7 -16 0 -28z"/>
</g>
</svg>
